<svg width="20" height="18" viewBox="0 0 20 18" fill="none" xmlns="http://www.w3.org/2000/svg">
<path d="M17.6123 2.41455C17.1725 1.9661 16.6502 1.61037 16.0755 1.36766C15.5007 1.12495 14.8847 1.00003 14.2625 1.00003C13.6404 1.00003 13.0243 1.12495 12.4496 1.36766C11.8748 1.61037 11.3526 1.9661 10.9128 2.41455L10 3.34479L9.08723 2.41455C8.19883 1.50915 6.99389 1.0005 5.73749 1.0005C4.4811 1.0005 3.27616 1.50915 2.38775 2.41455C1.49935 3.31995 1.00024 4.54793 1.00024 5.82836C1.00024 7.10879 1.49935 8.33677 2.38775 9.24217L3.30053 10.1724L10 17L16.6995 10.1724L17.6123 9.24217C18.0523 8.79394 18.4014 8.26174 18.6395 7.67599C18.8777 7.09024 19.0002 6.4624 19.0002 5.82836C19.0002 5.19431 18.8777 4.56648 18.6395 3.98073C18.4014 3.39497 18.0523 2.86278 17.6123 2.41455Z" stroke="#BDBDBD" stroke-width="1.5" stroke-linecap="round" stroke-linejoin="round"/>
</svg>
